<svg xmlns="http://www.w3.org/2000/svg" width="1200" height="630" viewBox="0 0 1200 630">
  <defs>
    <linearGradient id="bg" x1="0" y1="0" x2="1" y2="1"><stop offset="0" stop-color="#470711"/><stop offset=".45" stop-color="#06272b"/><stop offset="1" stop-color="#03181d"/></linearGradient>
    <radialGradient id="g1" cx="12%" cy="88%" r="58%"><stop offset="0" stop-color="#20d39b" stop-opacity=".55"/><stop offset="1" stop-color="#20d39b" stop-opacity="0"/></radialGradient>
    <radialGradient id="g2" cx="86%" cy="8%" r="54%"><stop offset="0" stop-color="#ef3340" stop-opacity=".46"/><stop offset="1" stop-color="#ef3340" stop-opacity="0"/></radialGradient>
    <filter id="shadow" x="-20%" y="-20%" width="140%" height="140%"><feDropShadow dx="0" dy="20" stdDeviation="24" flood-color="#000" flood-opacity=".28"/></filter>
    <style>.sans{font-family:Arial, Helvetica, sans-serif}.white{fill:#f8fffb}.muted{fill:#cbe2de}.deep{fill:#03181d}.green{fill:#20d39b}.red{fill:#ef3340}.bold{font-weight:800}.med{font-weight:700}.ls{letter-spacing:3px}</style>
  </defs>
  <rect width="1200" height="630" fill="url(#bg)"/><rect width="1200" height="630" fill="url(#g1)"/><rect width="1200" height="630" fill="url(#g2)"/>
  <path d="M0 74 L1200 0 L1200 94 L0 170Z" fill="#fff" opacity=".12"/><path d="M0 100 L1200 28 L1200 66 L0 140Z" fill="#ef3340" opacity=".52"/>
  <g transform="translate(54 54)"><rect width="70" height="70" rx="17" fill="#8af8cf"/><text x="35" y="45" text-anchor="middle" class="sans deep bold" font-size="24">CS</text><text x="92" y="42" class="sans white bold ls" font-size="26">CODESYARIAH WEBDEVELOPMENT</text></g>
  <rect x="54" y="145" width="398" height="48" rx="24" fill="#ef3340"/><text x="253" y="177" text-anchor="middle" class="sans white bold ls" font-size="18">PROMO KEMERDEKAAN 17 AGUSTUS</text>
  <text x="54" y="280" class="sans white bold" font-size="66"><tspan x="54">PROMO MERDEKA</tspan><tspan x="54" dy="72">WEBSITE</tspan></text>
  <text x="54" y="424" class="sans muted" font-size="30">Diskon hingga 17% • Kupon MERDEKA17 • 10 claim per hari</text>
  <g transform="translate(54 478)" filter="url(#shadow)">
    <rect width="294" height="105" rx="22" fill="#fff" opacity=".14" stroke="#fff" stroke-opacity=".35"/><text x="24" y="34" class="sans muted bold" font-size="20">Company Profile</text><text x="24" y="74" class="sans muted bold" font-size="27">1.8JT</text><line x1="23" y1="64" x2="105" y2="64" stroke="#ef3340" stroke-width="5"/><text x="135" y="76" class="sans green bold" font-size="35">1.5JT</text>
    <g transform="translate(320 0)"><rect width="294" height="105" rx="22" fill="#fff" opacity=".14" stroke="#fff" stroke-opacity=".35"/><text x="24" y="34" class="sans muted bold" font-size="20">Business Website</text><text x="24" y="74" class="sans muted bold" font-size="27">5JT</text><line x1="23" y1="64" x2="72" y2="64" stroke="#ef3340" stroke-width="5"/><text x="112" y="76" class="sans green bold" font-size="35">4JT</text></g>
  </g>
  <g transform="translate(780 92)" filter="url(#shadow)">
    <rect width="350" height="278" rx="26" fill="#fff" opacity=".13" stroke="#fff" stroke-opacity=".35"/>
    <rect x="18" y="18" width="314" height="50" rx="16" fill="#fff" opacity=".18"/><circle cx="48" cy="43" r="8" fill="#ef3340"/><circle cx="78" cy="43" r="8" fill="#ffd166"/><circle cx="108" cy="43" r="8" fill="#20d39b"/>
    <rect x="38" y="98" width="274" height="54" rx="17" fill="#20d39b"/><text x="175" y="133" text-anchor="middle" class="sans deep bold" font-size="22">Website siap launch</text>
    <rect x="38" y="178" width="274" height="42" rx="14" fill="#fff" opacity=".22"/><text x="58" y="205" class="sans white bold" font-size="18">Company Profile • Landing Page</text>
    <text x="58" y="247" class="sans muted bold" font-size="18">SEO Basic + WhatsApp CTA</text>
  </g>
  <rect x="780" y="430" width="350" height="102" rx="28" fill="#20d39b"/>
  <text x="955" y="469" text-anchor="middle" class="sans deep bold" font-size="22">CLAIM VIA WHATSAPP</text>
  <text x="955" y="510" text-anchor="middle" class="sans deep bold" font-size="36">0882-2266-8778</text>
</svg>
