<svg xmlns="http://www.w3.org/2000/svg" width="1080" height="1920" viewBox="0 0 1080 1920">
  <defs>
    <linearGradient id="bg" x1="0" y1="0" x2="1" y2="1"><stop offset="0" stop-color="#4d0712"/><stop offset=".42" stop-color="#06272b"/><stop offset="1" stop-color="#03181d"/></linearGradient>
    <radialGradient id="g1" cx="12%" cy="88%" r="58%"><stop offset="0" stop-color="#20d39b" stop-opacity=".55"/><stop offset="1" stop-color="#20d39b" stop-opacity="0"/></radialGradient>
    <radialGradient id="g2" cx="88%" cy="9%" r="56%"><stop offset="0" stop-color="#ef3340" stop-opacity=".48"/><stop offset="1" stop-color="#ef3340" stop-opacity="0"/></radialGradient>
    <filter id="shadow" x="-20%" y="-20%" width="140%" height="140%"><feDropShadow dx="0" dy="28" stdDeviation="32" flood-color="#000" flood-opacity=".28"/></filter>
    <style>.sans{font-family:Arial, Helvetica, sans-serif}.white{fill:#f8fffb}.muted{fill:#cbe2de}.deep{fill:#03181d}.green{fill:#20d39b}.red{fill:#ef3340}.bold{font-weight:800}.med{font-weight:700}.ls{letter-spacing:3px}</style>
  </defs>
  <rect width="1080" height="1920" fill="url(#bg)"/><rect width="1080" height="1920" fill="url(#g1)"/><rect width="1080" height="1920" fill="url(#g2)"/>
  <path d="M0 142 L1080 28 L1080 198 L0 338Z" fill="#fff" opacity=".12"/><path d="M0 186 L1080 74 L1080 132 L0 280Z" fill="#ef3340" opacity=".52"/>
  <g opacity=".11" stroke="#fff"><path d="M90 0V1920M180 0V1920M270 0V1920M360 0V1920M450 0V1920M540 0V1920M630 0V1920M720 0V1920M810 0V1920M900 0V1920M990 0V1920"/><path d="M0 90H1080M0 180H1080M0 270H1080M0 360H1080M0 450H1080M0 540H1080M0 630H1080M0 720H1080M0 810H1080M0 900H1080M0 990H1080M0 1080H1080M0 1170H1080M0 1260H1080M0 1350H1080M0 1440H1080M0 1530H1080M0 1620H1080M0 1710H1080"/></g>
  <g transform="translate(72 78)"><rect width="90" height="90" rx="22" fill="#8af8cf"/><text x="45" y="57" text-anchor="middle" class="sans deep bold" font-size="30">CS</text><text x="120" y="35" class="sans white bold ls" font-size="29">CODESYARIAH</text><text x="120" y="74" class="sans muted med ls" font-size="25">WEBDEVELOPMENT</text></g>
  <rect x="72" y="268" width="248" height="66" rx="33" fill="#f8fffb"/><text x="196" y="312" text-anchor="middle" class="sans red bold" font-size="32">MERDEKA17</text>
  <text x="72" y="455" class="sans white bold" font-size="106"><tspan x="72">PROMO</tspan><tspan x="72" dy="112">MERDEKA</tspan><tspan x="72" dy="112">WEBSITE</tspan></text>
  <text x="72" y="840" class="sans muted" font-size="42"><tspan x="72">Diskon hingga 17% untuk semua</tspan><tspan x="72" dy="56">layanan digital bisnis.</tspan></text>
  <g transform="translate(72 990)" filter="url(#shadow)"><rect width="936" height="206" rx="38" fill="#f8fffb"/><text x="44" y="65" class="sans med" font-size="32" fill="#66797b">Kupon:</text><text x="44" y="136" class="sans deep bold" font-size="70">MERDEKA17</text><rect x="514" y="62" width="356" height="82" rx="41" fill="#20d39b"/><text x="692" y="114" text-anchor="middle" class="sans deep bold" font-size="31">10 CLAIM PER HARI</text></g>
  <g transform="translate(72 1280)" filter="url(#shadow)">
    <rect width="936" height="128" rx="28" fill="#fff" opacity=".14" stroke="#fff" stroke-opacity=".35"/><text x="32" y="43" class="sans muted bold" font-size="25">Company Profile</text><text x="32" y="92" class="sans muted bold" font-size="34">1.8JT</text><line x1="31" y1="80" x2="134" y2="80" stroke="#ef3340" stroke-width="6"/><text x="205" y="92" class="sans green bold" font-size="45">Promo 1.5JT</text>
    <g transform="translate(0 158)"><rect width="936" height="128" rx="28" fill="#fff" opacity=".14" stroke="#fff" stroke-opacity=".35"/><text x="32" y="43" class="sans muted bold" font-size="25">Business Website</text><text x="32" y="92" class="sans muted bold" font-size="34">5JT</text><line x1="31" y1="80" x2="92" y2="80" stroke="#ef3340" stroke-width="6"/><text x="205" y="92" class="sans green bold" font-size="45">Promo 4JT</text></g>
    <g transform="translate(0 316)"><rect width="936" height="128" rx="28" fill="#fff" opacity=".14" stroke="#fff" stroke-opacity=".35"/><text x="32" y="43" class="sans muted bold" font-size="25">Web App &amp; Automation</text><text x="32" y="92" class="sans muted bold" font-size="34">By Scope</text><line x1="31" y1="80" x2="176" y2="80" stroke="#ef3340" stroke-width="6"/><text x="255" y="92" class="sans green bold" font-size="45">Diskon 17%</text></g>
  </g>
  <text x="72" y="1800" class="sans muted bold" font-size="34">Claim via WhatsApp</text><text x="72" y="1852" class="sans white bold" font-size="50">0882-2266-8778</text>
</svg>
